<svg version="1.2" baseProfile="tiny-ps" xmlns="http://www.w3.org/2000/svg" viewBox="0 0 269 60" width="269" height="60">
	<title>TripleDart-logo-white-svg</title>
	<style>
		tspan { white-space:pre }
		.shp0 { fill: none;stroke: #ffffff;stroke-width: 3.841 } 
		.shp1 { fill: #ffffff } 
	</style>
	<path id="Layer" class="shp0" d="M5.9 11.52L36.4 11.52C38.43 11.52 40.07 13.16 40.07 15.19L40.07 45.26C40.07 47.29 38.43 48.93 36.4 48.93L5.9 48.93C3.87 48.93 2.22 47.29 2.22 45.26L2.22 15.19C2.22 13.16 3.87 11.52 5.9 11.52Z" />
	<path id="Layer" class="shp1" d="M29.02 27.49C27.57 28.93 27.57 31.28 29.02 32.73C30.47 34.18 32.82 34.18 34.27 32.73C35.72 31.28 35.72 28.93 34.27 27.49C32.82 26.04 30.47 26.04 29.02 27.49Z" />
	<path id="Layer" class="shp1" d="M7.89 27.68C6.43 29.13 6.43 31.49 7.89 32.95C9.35 34.41 11.72 34.41 13.18 32.95C14.64 31.49 14.64 29.13 13.18 27.68C11.72 26.22 9.35 26.22 7.89 27.68Z" />
	<path id="Layer" class="shp1" d="M18.46 27.68C17 29.13 17 31.49 18.46 32.95C19.92 34.41 22.29 34.41 23.75 32.95C25.21 31.49 25.21 29.13 23.75 27.68C22.29 26.22 19.92 26.22 18.46 27.68Z" />
	<path id="Layer" fill-rule="evenodd" class="shp1" d="M68.69 45.6L68.69 17.31L59.14 17.31L59.14 13.34L83.07 13.34L83.07 17.31L73.57 17.31L73.57 45.6L68.69 45.6ZM84.55 45.6L84.55 22.74L88.93 22.74L89.35 27.08C90.15 25.57 91.25 24.39 92.67 23.53C94.11 22.64 95.85 22.19 97.88 22.19L97.88 27.31L96.54 27.31C95.19 27.31 93.97 27.54 92.9 28C91.85 28.43 91.01 29.18 90.36 30.26C89.75 31.3 89.44 32.76 89.44 34.63L89.44 45.6L84.55 45.6ZM104.36 18.41C103.43 18.41 102.67 18.14 102.05 17.58C101.47 17 101.17 16.28 101.17 15.42C101.17 14.56 101.47 13.85 102.05 13.3C102.67 12.71 103.43 12.42 104.36 12.42C105.28 12.42 106.03 12.71 106.62 13.3C107.23 13.85 107.54 14.56 107.54 15.42C107.54 16.28 107.23 17 106.62 17.58C106.03 18.14 105.28 18.41 104.36 18.41ZM101.91 45.6L101.91 22.74L106.8 22.74L106.8 45.6L101.91 45.6ZM112.77 55.74L112.77 22.74L117.15 22.74L117.66 26.29C118.4 25.22 119.41 24.26 120.7 23.44C122 22.61 123.66 22.19 125.68 22.19C127.9 22.19 129.85 22.71 131.54 23.76C133.23 24.8 134.55 26.23 135.51 28.04C136.49 29.86 136.98 31.91 136.98 34.22C136.98 36.52 136.49 38.58 135.51 40.39C134.55 42.17 133.23 43.59 131.54 44.63C129.85 45.65 127.88 46.15 125.64 46.15C123.86 46.15 122.27 45.8 120.89 45.09C119.54 44.39 118.46 43.39 117.66 42.1L117.66 55.74L112.77 55.74ZM124.81 41.91C126.9 41.91 128.62 41.21 129.97 39.79C131.33 38.35 132 36.48 132 34.17C132 32.67 131.69 31.33 131.08 30.16C130.47 29 129.62 28.09 128.54 27.44C127.47 26.77 126.22 26.43 124.81 26.43C122.72 26.43 121 27.15 119.64 28.6C118.32 30.04 117.66 31.9 117.66 34.17C117.66 36.48 118.32 38.35 119.64 39.79C121 41.21 122.72 41.91 124.81 41.91ZM141.79 45.6L141.79 12.42L146.68 12.42L146.68 45.6L141.79 45.6ZM163.09 46.15C160.84 46.15 158.84 45.66 157.09 44.68C155.37 43.66 154.02 42.27 153.03 40.49C152.05 38.7 151.56 36.63 151.56 34.26C151.56 31.87 152.03 29.76 152.99 27.95C153.97 26.14 155.32 24.73 157.04 23.71C158.8 22.7 160.83 22.19 163.13 22.19C165.38 22.19 167.33 22.7 168.99 23.71C170.65 24.7 171.94 26.02 172.86 27.67C173.78 29.33 174.25 31.16 174.25 33.16C174.25 33.47 174.23 33.8 174.2 34.17C174.2 34.51 174.18 34.89 174.15 35.32L156.35 35.32C156.51 37.54 157.23 39.23 158.52 40.39C159.84 41.53 161.36 42.1 163.09 42.1C164.47 42.1 165.62 41.79 166.54 41.18C167.5 40.53 168.2 39.67 168.67 38.6L173.55 38.6C172.94 40.75 171.71 42.54 169.86 43.99C168.05 45.43 165.79 46.15 163.09 46.15ZM163.09 26.2C161.46 26.2 160.01 26.69 158.75 27.67C157.49 28.63 156.72 30.07 156.45 32.01L169.36 32.01C169.26 30.22 168.63 28.81 167.47 27.77C166.3 26.72 164.84 26.2 163.09 26.2ZM179.02 45.6L179.02 13.34L189.49 13.34C193.27 13.34 196.38 14 198.8 15.33C201.26 16.65 203.08 18.52 204.25 20.95C205.44 23.34 206.04 26.2 206.04 29.52C206.04 32.81 205.44 35.66 204.25 38.09C203.08 40.49 201.26 42.34 198.8 43.66C196.38 44.95 193.27 45.6 189.49 45.6L179.02 45.6ZM183.91 41.45L189.3 41.45C192.23 41.45 194.53 40.98 196.22 40.02C197.94 39.07 199.17 37.7 199.91 35.92C200.68 34.14 201.06 32.01 201.06 29.52C201.06 27.03 200.68 24.88 199.91 23.07C199.17 21.25 197.94 19.87 196.22 18.92C194.53 17.94 192.23 17.45 189.3 17.45L183.91 17.45L183.91 41.45ZM218.53 46.15C216.59 46.15 214.99 45.83 213.73 45.19C212.47 44.54 211.53 43.7 210.92 42.65C210.3 41.58 210 40.41 210 39.15C210 36.94 210.86 35.19 212.58 33.9C214.3 32.61 216.76 31.96 219.96 31.96L225.95 31.96L225.95 31.55C225.95 29.76 225.46 28.43 224.48 27.54C223.52 26.65 222.28 26.2 220.74 26.2C219.39 26.2 218.21 26.54 217.19 27.21C216.21 27.86 215.61 28.83 215.39 30.12L210.5 30.12C210.66 28.46 211.21 27.05 212.16 25.88C213.15 24.68 214.38 23.77 215.85 23.16C217.36 22.51 219 22.19 220.79 22.19C223.98 22.19 226.46 23.04 228.21 24.73C229.96 26.38 230.84 28.66 230.84 31.55L230.84 45.6L226.6 45.6L226.18 41.68C225.54 42.94 224.6 44 223.37 44.86C222.14 45.72 220.53 46.15 218.53 46.15ZM219.5 42.19C220.82 42.19 221.93 41.88 222.82 41.27C223.74 40.62 224.45 39.78 224.94 38.73C225.46 37.69 225.78 36.54 225.91 35.28L220.46 35.28C218.53 35.28 217.14 35.62 216.31 36.29C215.52 36.97 215.12 37.81 215.12 38.83C215.12 39.87 215.5 40.7 216.27 41.31C217.07 41.9 218.14 42.19 219.5 42.19ZM236.06 45.6L236.06 22.74L240.44 22.74L240.86 27.08C241.65 25.57 242.76 24.39 244.18 23.53C245.62 22.64 247.36 22.19 249.39 22.19L249.39 27.31L248.05 27.31C246.7 27.31 245.48 27.54 244.41 28C243.36 28.43 242.52 29.18 241.87 30.26C241.26 31.3 240.95 32.76 240.95 34.63L240.95 45.6L236.06 45.6ZM262.69 45.6C260.44 45.6 258.66 45.06 257.34 43.99C256.02 42.88 255.36 40.93 255.36 38.14L255.36 26.85L251.44 26.85L251.44 22.74L255.36 22.74L255.96 16.94L260.24 16.94L260.24 22.74L266.7 22.74L266.7 26.85L260.24 26.85L260.24 38.14C260.24 39.39 260.51 40.27 261.03 40.76C261.58 41.22 262.52 41.45 263.84 41.45L266.47 41.45L266.47 45.6L262.69 45.6Z" />
</svg>